<svg width="1000" height="668" viewBox="0 0 1000 668" fill="none" xmlns="http://www.w3.org/2000/svg">
<path d="M4 334L996 334" stroke="#0A0D2C" stroke-width="7" stroke-linecap="round" stroke-linejoin="round"/>
<path d="M729 4L729 664" stroke="#0A0D2C" stroke-width="7" stroke-linecap="round" stroke-linejoin="round"/>
<path d="M729 279C729 279 720.489 302.357 709.75 313.375C698.5 324.917 674 334 674 334H729V279Z" fill="#0A0D2C"/>
<path d="M729 279C729 279 737.511 302.357 748.25 313.375C759.5 324.917 784 334 784 334H729V279Z" fill="#0A0D2C"/>
<path d="M674 334C674 334 697.357 342.511 708.375 353.25C719.917 364.5 729 389 729 389L729 334L674 334Z" fill="#0A0D2C"/>
<path d="M784 334C784 334 760.643 342.511 749.625 353.25C738.083 364.5 729 389 729 389L729 334L784 334Z" fill="#0A0D2C"/>
</svg>
