<svg width="110" height="1703" viewBox="0 0 110 1703" fill="none" xmlns="http://www.w3.org/2000/svg">
<path d="M55 4L55.0001 1699" stroke="#0A0D2C" stroke-width="8" stroke-linecap="round"/>
<path d="M55 794C55 794 46.4894 817.357 35.75 828.375C24.4995 839.917 0 849 0 849H55V794Z" fill="#0A0D2C"/>
<path d="M55 794C55 794 63.5106 817.357 74.25 828.375C85.5005 839.917 110 849 110 849H55V794Z" fill="#0A0D2C"/>
<path d="M0 849C0 849 23.3573 857.511 34.375 868.25C45.917 879.5 55 904 55 904L55 849L0 849Z" fill="#0A0D2C"/>
<path d="M110 849C110 849 86.6427 857.511 75.625 868.25C64.083 879.5 55 904 55 904L55 849L110 849Z" fill="#0A0D2C"/>
</svg>
